<?xml version="1.0" standalone="no"?>
<!DOCTYPE svg PUBLIC "-//W3C//DTD SVG 20010904//EN"
 "http://www.w3.org/TR/2001/REC-SVG-20010904/DTD/svg10.dtd">
<svg version="1.0" xmlns="http://www.w3.org/2000/svg"
 width="500.000000pt" height="500.000000pt" viewBox="0 0 500.000000 500.000000"
 preserveAspectRatio="xMidYMid meet">

<g transform="translate(0.000000,500.000000) scale(0.100000,-0.100000)"
fill="#000000" stroke="none">
<path d="M1 3933 c2 -956 3 -1043 14 -831 12 252 10 245 72 304 32 31 33 31
169 37 75 4 277 7 449 7 233 0 315 3 328 13 9 6 50 50 91 97 l76 85 -498 497
-497 498 78 77 77 78 493 -493 493 -493 29 33 c15 18 47 53 69 78 23 25 71 79
107 120 495 563 609 684 673 717 87 44 196 16 242 -61 25 -43 33 -324 33
-1267 l1 -776 24 -22 23 -22 264 288 c145 158 288 314 317 346 l54 59 -29 31
c-72 77 -82 135 -38 216 55 101 157 125 267 64 l56 -32 144 157 c80 86 159
173 176 194 l32 36 -64 36 c-89 50 -120 78 -145 131 -24 51 -26 74 -9 124 29
87 87 131 171 131 61 0 97 -14 207 -81 52 -31 98 -55 103 -52 4 2 135 143 290
311 155 169 286 307 293 307 6 0 43 -30 84 -68 65 -60 71 -69 59 -84 -8 -10
-135 -150 -283 -311 l-268 -293 123 -122 c164 -161 246 -262 331 -407 41 -69
130 -247 148 -295 4 -11 13 -33 20 -50 18 -43 55 -162 69 -217 43 -182 51
-232 58 -353 16 -309 22 -27 23 1093 l0 1232 -2500 0 -2500 0 1 -1067z"/>
<path d="M3824 3678 c-77 -84 -157 -172 -178 -196 l-39 -42 60 -63 c176 -185
279 -382 343 -655 7 -31 12 -123 12 -225 0 -137 -5 -189 -21 -258 -61 -258
-155 -428 -355 -643 -20 -21 -36 -41 -36 -45 0 -12 365 -371 377 -371 20 0
207 190 271 275 232 312 345 650 346 1040 1 239 -35 436 -116 640 -45 112
-158 315 -217 388 -106 131 -275 307 -296 307 -7 0 -75 -69 -151 -152z"/>
<path d="M3345 3152 c-6 -4 -136 -144 -289 -312 -154 -168 -296 -323 -317
-345 l-39 -40 320 -320 319 -319 46 50 c123 131 218 305 251 457 17 80 19 264
3 339 -14 69 -55 179 -92 247 -67 123 -180 258 -202 243z"/>
<path d="M4986 2428 c-3 -18 -8 -77 -11 -132 -14 -225 -89 -491 -202 -721 -54
-109 -75 -145 -148 -255 -79 -119 -102 -147 -245 -293 -63 -65 -117 -120 -120
-123 -2 -3 118 -127 268 -277 l272 -272 -78 -78 -77 -77 -280 280 c-154 154
-283 280 -287 280 -4 0 -46 -24 -95 -53 -147 -89 -198 -110 -252 -102 -80 12
-125 47 -157 124 -41 97 6 176 158 266 37 22 68 42 68 45 0 3 -83 88 -184 189
l-185 185 -38 -26 c-62 -41 -102 -50 -162 -37 -95 20 -162 115 -145 205 4 20
22 56 41 81 l35 46 -303 303 -304 304 -28 -28 -28 -28 -8 -939 c-5 -641 -11
-948 -19 -965 -13 -30 -48 -70 -82 -93 -33 -23 -111 -22 -163 2 -60 28 -135
105 -472 486 -85 96 -162 183 -199 225 -17 20 -50 57 -73 82 l-43 47 -436
-477 c-241 -262 -440 -480 -444 -485 -3 -4 -42 26 -85 66 l-79 74 24 29 c14
16 214 236 445 488 231 252 420 464 420 471 0 12 -192 235 -239 277 -10 10
-19 19 -20 19 -1 1 -201 4 -446 8 -443 6 -445 6 -477 29 -18 12 -42 37 -55 55
-21 29 -23 48 -34 267 -10 206 -11 103 -13 -832 l-1 -1068 2500 0 2500 0 0
1230 c0 677 -2 1230 -5 1230 -2 0 -6 -15 -9 -32z"/>
</g>
</svg>
