<?xml version="1.0" standalone="no"?>
<!DOCTYPE svg PUBLIC "-//W3C//DTD SVG 20010904//EN"
 "http://www.w3.org/TR/2001/REC-SVG-20010904/DTD/svg10.dtd">
<svg version="1.0" xmlns="http://www.w3.org/2000/svg"
 width="500.000000pt" height="500.000000pt" viewBox="0 0 500.000000 500.000000"
 preserveAspectRatio="xMidYMid meet">

<g transform="translate(0.000000,500.000000) scale(0.100000,-0.100000)"
fill="#000000" stroke="none">
<path d="M2 3933 c1 -926 3 -1037 12 -833 10 220 13 237 34 267 42 58 68 70
177 76 55 4 257 7 448 7 l348 0 26 28 c14 15 96 106 182 202 86 96 158 177
161 180 3 3 39 43 80 90 41 47 77 87 80 90 3 3 52 59 110 125 57 66 107 122
110 125 3 3 23 25 45 50 255 289 363 398 414 422 62 28 136 21 185 -16 68 -52
69 -54 77 -315 9 -289 9 -2211 0 -3281 -6 -686 -9 -789 -23 -820 -33 -73 -84
-110 -151 -110 -66 0 -123 29 -191 95 -45 45 -428 472 -736 822 -281 320 -347
393 -360 399 -8 4 -213 10 -455 13 -490 7 -465 3 -522 77 -28 37 -28 37 -39
273 -10 205 -11 94 -12 -831 l-2 -1068 2500 0 2500 0 -1 1233 c0 1129 -5 1373
-22 1087 -6 -100 -34 -268 -58 -355 -23 -79 -60 -190 -69 -207 -6 -10 -10 -23
-10 -30 0 -29 -145 -304 -215 -408 -90 -133 -112 -158 -273 -319 -155 -152
-284 -251 -452 -343 -90 -49 -131 -59 -193 -47 -60 11 -97 42 -127 105 -50
109 -6 187 161 285 161 94 397 296 484 414 17 22 33 42 36 45 4 3 35 50 71
105 115 179 197 378 237 575 6 30 16 82 22 115 16 80 16 391 0 485 -66 398
-206 681 -477 962 -110 114 -211 194 -357 283 -146 89 -186 131 -194 207 -10
83 57 180 133 194 92 17 152 -7 357 -143 198 -131 411 -338 554 -536 64 -89
183 -308 223 -412 52 -131 86 -237 100 -310 4 -22 15 -76 24 -120 9 -44 19
-129 23 -190 17 -305 22 -30 23 1093 l0 1232 -2500 0 -2500 0 2 -1067z m3373
-314 c127 -73 296 -231 407 -379 108 -145 185 -318 223 -505 23 -108 23 -362
1 -465 -31 -146 -75 -274 -121 -350 -11 -19 -27 -47 -34 -62 -28 -55 -142
-196 -227 -282 -95 -94 -246 -206 -305 -225 -89 -29 -204 35 -228 127 -23 85
12 156 121 239 83 64 226 206 269 268 81 116 140 251 160 369 18 109 7 295
-24 388 -66 196 -201 388 -352 496 -67 47 -143 121 -161 154 -41 78 9 203 97
243 45 21 124 13 174 -16z"/>
</g>
</svg>
